<?xml version="1.0" encoding="utf-8"?>
<svg xmlns="http://www.w3.org/2000/svg" viewBox="0 0 500 500" xmlns:bx="https://boxy-svg.com" width="500px" height="500px"><defs><radialGradient gradientUnits="userSpaceOnUse" cx="374.676" cy="38.632" r="168.323" id="gradient-2" gradientTransform="matrix(-1.77057, -0.000346, 0.000382, -2.482106, 1031.689467, 161.587265)"><stop offset="0" style="stop-color: rgb(68, 187, 252);"/><stop offset="0.418" style="stop-color: rgb(59, 116, 253);"/><stop offset="1" style="stop-color: rgb(88, 75, 253);"/></radialGradient><radialGradient gradientUnits="userSpaceOnUse" cx="299.1" cy="310.52" r="63.814" id="gradient-1" gradientTransform="matrix(1.294729, -2.659819, 3.018827, 1.846706, -1222.959821, 681.243168)" spreadMethod="pad"><stop offset="0" style="stop-color: rgb(53, 79, 253);"/><stop offset="1" style="stop-color: rgb(21, 48, 230);"/></radialGradient><radialGradient gradientUnits="userSpaceOnUse" cx="394.251" cy="38.792" r="106.406" id="gradient-3" gradientTransform="matrix(-4.461257, 0.34295, 0.241844, -4.52328, 2254.950073, 106.118441)"><stop offset="0" style="stop-color: rgb(138, 204, 253);"/><stop offset="0.526" style="stop-color: rgb(62, 147, 251);"/><stop offset="1" style="stop-color: rgb(88, 75, 253);"/></radialGradient><bx:export><bx:file format="svg" path="Sans titre.svg"/></bx:export></defs><path style="paint-order: stroke; fill: url(&quot;#gradient-2&quot;);" d="M 34.668 157.291 L 60.209 82.095 C 60.209 82.095 68.24 58.996 102.769 59.286 L 355.779 59.813 C 355.779 59.813 380.649 59.042 371.599 85.553 L 349.553 161.447 C 349.553 161.447 344.937 182.298 316.125 182.984 L 266.496 182.724 C 266.496 182.724 254.02 181.995 250.371 199.875 L 222.549 303.1 C 222.549 303.1 234.088 196.577 128.622 182.996 C 128.001 182.916 49.459 182.315 49.459 182.315 C 49.459 182.315 28.782 182.963 34.668 157.291 Z"/><path style="fill: url(&quot;#gradient-1&quot;); fill-rule: nonzero;" d="M 131.265 182.735 C 131.265 182.735 141.011 188.136 136.435 199.037 L 79.435 426.608 C 72.051 449.3 88.542 455.75 100.719 457.477 C 112.895 459.204 163.022 460.237 163.022 460.237 C 163.022 460.237 178.433 461.524 183.234 448.645 L 222.832 302.254 C 222.832 302.254 243.944 188.974 131.265 182.735 Z"/><path style="fill: url(&quot;#gradient-3&quot;);" d="M 485.517 88.955 C 491.211 70.544 486.785 61.749 475.543 61.252 L 438.988 60.653 C 426.185 61.705 424.581 69.086 421.062 79.155 L 382.674 206.264 C 382.674 206.264 374.931 230.442 351.536 230.375 L 302.533 230.386 C 302.533 230.386 287.337 228.747 284.187 246.509 L 228.075 452.429 C 228.075 452.429 228.229 462.78 240.956 463.049 C 253.686 463.32 277.053 463.524 277.053 463.524 C 277.053 463.524 292.815 465.539 295.118 451.994 L 333.284 307.952 C 336.37 297.663 338.753 287.902 354.614 287.583 L 403.559 287.675 C 435.818 287.37 436.283 260.859 440.645 251.466 L 485.517 88.955 Z"/></svg>